<svg preserveAspectRatio="none" width="100%" height="100%" overflow="visible" style="display: block;" viewBox="0 0 13 12.4142" fill="none" xmlns="http://www.w3.org/2000/svg">
<g id="Vector">
<path d="M6.50001 11.9142H12.5M9.50001 0.914214C9.76523 0.648997 10.1249 0.5 10.5 0.5C10.6857 0.5 10.8696 0.53658 11.0412 0.607651C11.2128 0.678721 11.3687 0.782892 11.5 0.914214C11.6313 1.04554 11.7355 1.20144 11.8066 1.37302C11.8776 1.5446 11.9142 1.7285 11.9142 1.91421C11.9142 2.09993 11.8776 2.28383 11.8066 2.45541C11.7355 2.62699 11.6313 2.78289 11.5 2.91421L3.16668 11.2475L0.500011 11.9142L1.16668 9.24755L9.50001 0.914214Z" stroke="var(--stroke-0, #DBE4E9)" stroke-linecap="round" stroke-linejoin="round"/>
<path d="M6.50001 11.9142H12.5M9.50001 0.914214C9.76523 0.648997 10.1249 0.5 10.5 0.5C10.6857 0.5 10.8696 0.53658 11.0412 0.607651C11.2128 0.678721 11.3687 0.782892 11.5 0.914214C11.6313 1.04554 11.7355 1.20144 11.8066 1.37302C11.8776 1.5446 11.9142 1.7285 11.9142 1.91421C11.9142 2.09993 11.8776 2.28383 11.8066 2.45541C11.7355 2.62699 11.6313 2.78289 11.5 2.91421L3.16668 11.2475L0.500011 11.9142L1.16668 9.24755L9.50001 0.914214Z" stroke="var(--stroke-1, black)" stroke-opacity="0.2" stroke-linecap="round" stroke-linejoin="round"/>
<path d="M6.50001 11.9142H12.5M9.50001 0.914214C9.76523 0.648997 10.1249 0.5 10.5 0.5C10.6857 0.5 10.8696 0.53658 11.0412 0.607651C11.2128 0.678721 11.3687 0.782892 11.5 0.914214C11.6313 1.04554 11.7355 1.20144 11.8066 1.37302C11.8776 1.5446 11.9142 1.7285 11.9142 1.91421C11.9142 2.09993 11.8776 2.28383 11.8066 2.45541C11.7355 2.62699 11.6313 2.78289 11.5 2.91421L3.16668 11.2475L0.500011 11.9142L1.16668 9.24755L9.50001 0.914214Z" stroke="var(--stroke-2, black)" stroke-opacity="0.2" stroke-linecap="round" stroke-linejoin="round"/>
<path d="M6.50001 11.9142H12.5M9.50001 0.914214C9.76523 0.648997 10.1249 0.5 10.5 0.5C10.6857 0.5 10.8696 0.53658 11.0412 0.607651C11.2128 0.678721 11.3687 0.782892 11.5 0.914214C11.6313 1.04554 11.7355 1.20144 11.8066 1.37302C11.8776 1.5446 11.9142 1.7285 11.9142 1.91421C11.9142 2.09993 11.8776 2.28383 11.8066 2.45541C11.7355 2.62699 11.6313 2.78289 11.5 2.91421L3.16668 11.2475L0.500011 11.9142L1.16668 9.24755L9.50001 0.914214Z" stroke="var(--stroke-3, black)" stroke-opacity="0.2" stroke-linecap="round" stroke-linejoin="round"/>
</g>
</svg>
