<svg preserveAspectRatio="none" width="100%" height="100%" overflow="visible" style="display: block;" viewBox="0 0 11.0833 11.0833" fill="none" xmlns="http://www.w3.org/2000/svg">
<g id="Vector">
<path d="M5.54199 0.5C8.32629 0.500176 10.583 2.75766 10.583 5.54199C10.5828 8.32618 8.32618 10.5828 5.54199 10.583C2.75766 10.583 0.500176 8.32629 0.5 5.54199C0.5 2.75755 2.75755 0.5 5.54199 0.5Z" fill="var(--fill-0, #67FF38)"/>
<path d="M5.54199 0.5C8.32629 0.500176 10.583 2.75766 10.583 5.54199C10.5828 8.32618 8.32618 10.5828 5.54199 10.583C2.75766 10.583 0.500176 8.32629 0.5 5.54199C0.5 2.75755 2.75755 0.5 5.54199 0.5Z" stroke="var(--stroke-0, #67FF38)"/>
<path d="M5.54199 0.5C8.32629 0.500176 10.583 2.75766 10.583 5.54199C10.5828 8.32618 8.32618 10.5828 5.54199 10.583C2.75766 10.583 0.500176 8.32629 0.5 5.54199C0.5 2.75755 2.75755 0.5 5.54199 0.5Z" stroke="var(--stroke-1, #67FF38)" stroke-opacity="0.2"/>
<path d="M5.54199 0.5C8.32629 0.500176 10.583 2.75766 10.583 5.54199C10.5828 8.32618 8.32618 10.5828 5.54199 10.583C2.75766 10.583 0.500176 8.32629 0.5 5.54199C0.5 2.75755 2.75755 0.5 5.54199 0.5Z" stroke="var(--stroke-2, #67FF38)" stroke-opacity="0.2"/>
<path d="M5.54199 0.5C8.32629 0.500176 10.583 2.75766 10.583 5.54199C10.5828 8.32618 8.32618 10.5828 5.54199 10.583C2.75766 10.583 0.500176 8.32629 0.5 5.54199C0.5 2.75755 2.75755 0.5 5.54199 0.5Z" stroke="var(--stroke-3, #67FF38)" stroke-opacity="0.2"/>
</g>
</svg>
